<svg width="150" height="150" viewBox="0 0 150 150" fill="none" xmlns="http://www.w3.org/2000/svg">
<path d="M60.6875 13.35C59.8549 12.4967 58.8601 11.8187 57.7615 11.3557C56.6629 10.8927 55.4828 10.6542 54.2906 10.6542C53.0985 10.6542 51.9184 10.8927 50.8198 11.3557C49.7212 11.8187 48.7263 12.4967 47.8938 13.35H47.85C46.1508 15.0904 45.2055 17.4301 45.2188 19.8625C45.2188 22.425 46.225 24.7188 47.8563 26.3563L47.9 26.4C49.5063 28.05 51.75 29.0625 54.2688 29.0625C56.7938 29.0625 59.0563 28.05 60.6875 26.4L60.7063 26.3563C62.3375 24.7188 63.3375 22.425 63.3375 19.8625C63.3375 17.3125 62.3438 15.0062 60.7063 13.35H60.6875ZM54.2688 139.344C56.7938 139.344 59.0563 138.3 60.6875 136.662L60.7063 136.612C62.3375 134.981 63.3375 132.669 63.3375 130.138C63.3375 127.575 62.3438 125.275 60.7063 123.612H60.6875C59.8549 122.753 58.8571 122.071 57.754 121.607C56.6509 121.143 55.4654 120.907 54.2688 120.913C53.0784 120.905 51.899 121.141 50.8029 121.605C49.7067 122.069 48.7168 122.752 47.8938 123.612H47.85C46.225 125.275 45.2125 127.575 45.2125 130.138C45.2125 132.675 46.2188 134.981 47.85 136.612L47.8938 136.662C49.5063 138.3 51.75 139.344 54.2688 139.344ZM103.581 111.456C105.825 110.856 107.85 109.394 109.094 107.181L109.263 106.856C110.332 104.803 110.586 102.421 109.975 100.188C109.678 99.0212 109.152 97.9256 108.427 96.9643C107.703 96.0029 106.795 95.195 105.756 94.5875L105.625 94.5C103.576 93.3464 101.154 93.0498 98.8875 93.675C96.6375 94.2437 94.6125 95.7687 93.3813 97.9625C92.1313 100.144 91.875 102.65 92.4688 104.956C93.0875 107.225 94.5313 109.275 96.6875 110.556H96.7C98.8625 111.825 101.306 112.05 103.581 111.456ZM63.55 65.5688C62.3409 64.3317 60.8974 63.348 59.3038 62.6752C57.7102 62.0024 55.9986 61.6538 54.2688 61.65C50.6438 61.65 47.375 63.1625 45.0063 65.5688C42.6438 67.975 41.1813 71.2938 41.1813 74.9875C41.1813 78.6813 42.6375 82.0125 45.0063 84.45C46.2162 85.6812 47.6592 86.659 49.2511 87.3265C50.843 87.994 52.552 88.3378 54.2781 88.3378C56.0043 88.3378 57.7132 87.994 59.3051 87.3265C60.897 86.659 62.3401 85.6812 63.55 84.45C65.9188 82.0125 67.375 78.6813 67.375 74.9875C67.375 71.2938 65.9188 67.975 63.55 65.5688ZM58.3313 49.8812C63.6 50.7625 68.3313 53.3312 71.9438 57.0312H71.9688C72.5438 57.6125 73.1063 58.2562 73.625 58.9L82.6625 53.5812C81.4715 49.9227 81.3695 45.9968 82.3688 42.2812C83.0191 39.7748 84.1577 37.4213 85.7193 35.3557C87.2808 33.2901 89.2346 31.5529 91.4688 30.2438L91.625 30.1437C93.8192 28.8692 96.2449 28.0438 98.761 27.7155C101.277 27.3871 103.834 27.5625 106.281 28.2313C111.094 29.5438 115.438 32.7375 118.144 37.4938V37.5062C120.838 42.2375 121.381 47.6688 120.1 52.5563C119.452 55.0655 118.315 57.4219 116.753 59.4899C115.192 61.558 113.236 63.2967 111 64.6062L109.763 65.3437H109.638C105.447 67.3683 100.668 67.8143 96.175 66.6C92.5148 65.594 89.2268 63.5439 86.7125 60.7L77.6875 66C79.8281 71.8069 79.8281 78.1868 77.6875 83.9938L86.7125 89.2812C89.2938 86.3437 92.5813 84.35 96.175 83.3812C98.6515 82.6944 101.242 82.517 103.789 82.8597C106.336 83.2024 108.787 84.0581 110.994 85.375L111.294 85.5187V85.5313C115.657 88.2152 118.811 92.4846 120.094 97.4437C121.429 102.517 120.727 107.912 118.138 112.475L117.975 112.806L117.956 112.775C115.375 117.164 111.192 120.382 106.288 121.75C103.809 122.418 101.223 122.587 98.6784 122.245C96.1343 121.904 93.6835 121.06 91.4688 119.763V119.725C86.9585 117.076 83.6852 112.744 82.3688 107.681C81.3728 103.972 81.4749 100.053 82.6625 96.4L73.625 91.1C73.1043 91.7401 72.5516 92.3534 71.9688 92.9375L71.9438 92.9688C68.2811 96.7309 63.5113 99.2231 58.3313 100.081V110.7C62.0399 111.499 65.431 113.373 68.0813 116.087L68.0938 116.112C71.625 119.687 73.8063 124.662 73.8063 130.131C73.8063 135.587 71.6188 140.531 68.0938 144.125L68.0813 144.181C66.2807 146.02 64.132 147.481 61.7605 148.48C59.3889 149.479 56.8421 149.996 54.2688 150C51.7 149.993 49.1583 149.476 46.7913 148.478C44.4243 147.481 42.2794 146.022 40.4813 144.187H40.4688V144.131C36.7949 140.401 34.7381 135.373 34.7438 130.138C34.7438 124.669 36.9313 119.688 40.4688 116.119V116.094H40.4813C43.1304 113.384 46.5159 111.511 50.2188 110.706V100.087C45.0415 99.2319 40.275 96.7391 36.6188 92.975L36.5813 92.9438C31.8766 88.1493 29.2438 81.6985 29.25 74.9812C29.25 67.9687 32.075 61.6313 36.5813 57.0312H36.6188C40.2753 53.2609 45.0399 50.756 50.2188 49.8812V39.3063C46.5193 38.4851 43.137 36.6095 40.4813 33.9063H40.4688V33.8813C36.7922 30.1423 34.7356 25.1062 34.7438 19.8625C34.7438 14.4187 36.9313 9.43125 40.4688 5.84375L40.4813 5.83125C42.2744 3.98891 44.418 2.5239 46.7858 1.52245C49.1536 0.521006 51.6979 0.00336588 54.2688 0C59.65 0 64.525 2.21875 68.0813 5.825V5.8375H68.0938C71.625 9.425 73.8063 14.4125 73.8063 19.8563C73.8063 25.3313 71.6188 30.275 68.0938 33.875L68.0813 33.9063C65.421 36.6101 62.0346 38.4857 58.3313 39.3063V49.8812ZM109.088 42.825L109.013 42.7063C107.816 40.6572 105.864 39.1585 103.575 38.5312C102.423 38.215 101.22 38.1328 100.036 38.2895C98.8517 38.4463 97.7111 38.8387 96.6813 39.4437H96.6938C94.525 40.6937 93.0688 42.75 92.4625 45.0437C91.8688 47.325 92.125 49.8438 93.375 52.0375L93.4188 52.0938C94.6688 54.2625 96.6625 55.7125 98.8813 56.3C101.113 56.9438 103.6 56.6688 105.744 55.4L105.863 55.3437C107.897 54.1023 109.369 52.119 109.969 49.8125C110.599 47.4576 110.283 44.9496 109.088 42.825Z" fill="#231F20"/>
</svg>
