<svg width="150" height="150" viewBox="0 0 150 150" fill="none" xmlns="http://www.w3.org/2000/svg">
<g clip-path="url(#clip0_138_2)">
<path d="M148.081 66.9112L118.519 15.7587C115.96 11.3174 109.665 7.66992 104.518 7.66992H45.4532C40.3344 7.66992 34.0107 11.3174 31.4519 15.7587L1.9188 66.9112C-0.640576 71.3524 -0.640576 78.6174 1.9188 83.0593L31.4513 134.241C34.01 138.682 40.305 142.33 45.4525 142.33H104.546C109.665 142.33 115.959 138.682 118.548 134.241L148.08 83.0599C150.639 78.6181 150.641 71.3524 148.081 66.9112ZM68.6019 35.9668C68.6019 32.6137 71.3375 29.878 74.6907 29.878C78.0438 29.878 80.7794 32.6137 80.7794 35.9668V72.3524C80.7794 75.7062 78.0438 78.4412 74.6907 78.4412C71.3375 78.4412 68.6019 75.7062 68.6019 72.3524V35.9668ZM74.6907 113.651C51.9238 113.651 33.3925 95.1193 33.3925 72.3524C33.4219 59.2924 39.5988 47.0268 50.0707 39.2024C50.6417 38.7758 51.2914 38.4662 51.9824 38.2915C52.6734 38.1167 53.3921 38.0802 54.0973 38.184C54.8025 38.2879 55.4802 38.53 56.0915 38.8966C56.7028 39.2631 57.2356 39.7468 57.6594 40.3199C58.0861 40.891 58.3958 41.5407 58.5706 42.2317C58.7454 42.9228 58.782 43.6416 58.6781 44.3469C58.5743 45.0521 58.3321 45.7299 57.9655 46.3413C57.5989 46.9526 57.1151 47.4855 56.5419 47.9093C43.0407 57.9393 40.2169 77.0293 50.2469 90.5305C60.2775 104.032 79.3675 106.856 92.8688 96.8255C100.605 91.0899 105.164 82.0005 105.164 72.3524C105.152 67.5787 104.023 62.8741 101.867 58.6146C99.7119 54.3552 96.5901 50.6589 92.7513 47.8212C90.3388 46.0562 89.8388 42.6437 91.6038 40.2318C93.3688 37.8193 96.7807 37.3193 99.1932 39.0849C109.753 46.8793 115.959 59.2337 115.989 72.3524C115.989 95.1487 97.4575 113.651 74.6907 113.651Z" fill="#6DB33F"/>
</g>
<defs>
<clipPath id="clip0_138_2">
<rect width="150" height="150" fill="white"/>
</clipPath>
</defs>
</svg>
